<?xml version="1.0" encoding="UTF-8"?>
<svg id="Camada_2" data-name="Camada 2" xmlns="http://www.w3.org/2000/svg" viewBox="0 0 333.97 85">
  <defs>
    <style>
      .cls-1 {
        fill: #fff;
      }
    </style>
  </defs>
  <g id="Camada_1-2" data-name="Camada 1">
    <g>
      <path class="cls-1" d="M51.22,83.36L26.49,45.83l-9.29,9.17v28.37H0V0H17.2V33.9L49.09,0h22.6L38.79,32.89l33.65,50.47h-21.22Z"/>
      <path class="cls-1" d="M112.12,83.36c-.5-1.51-.88-3.64-1-5.52-3.89,4.27-10.42,7.16-18.71,7.16-14.06,0-20.59-6.91-20.59-16.95,0-17.83,11.93-19.84,28.37-22.1,8.16-1.13,10.42-2.76,10.42-7.03,0-4.02-4.02-6.4-10.42-6.4-7.41,0-10.42,3.64-11.17,9.17h-15.19c.25-12.81,7.28-21.72,27.12-21.72s26.37,8.79,26.37,24.36v39.05h-15.19Zm-1.13-30.26c-1.63,1.63-4.52,2.51-10.55,3.64-9.29,1.76-12.3,4.39-12.3,9.67,0,4.65,2.76,6.91,7.91,6.91,8.41,0,14.69-6.15,14.81-13.43l.13-6.78Z"/>
      <path class="cls-1" d="M174.02,83.36V45.95c0-9.54-2.76-12.18-10.55-12.18-8.54,0-12.68,4.77-12.68,14.19v35.41h-16.32V21.59h15.57v9.04c3.77-6.91,10.04-10.67,19.96-10.67,11.8,0,20.46,7.16,20.46,20.59v42.81h-16.45Z"/>
      <path class="cls-1" d="M237.8,83.36v-8.66c-4.27,7.03-10.67,10.29-19.21,10.29-12.3,0-20.97-9.17-20.97-22.72V21.59h16.32V59.76c0,7.78,3.51,11.55,10.42,11.55,8.29,0,12.68-5.9,12.68-14.06V21.59h16.2v61.77h-15.44Z"/>
      <path class="cls-1" d="M295.43,42.69h15.19v17.58c0,13.06-7.53,24.73-24.98,24.73s-25.24-11.55-25.24-24.86V4.9h16.07V21.59h34.15v11.55h-34.15v25.36c0,7.78,2.76,12.3,9.42,12.3s9.54-4.39,9.54-12.05v-16.07Z"/>
      <path class="cls-1" d="M283.63,14.19V0h50.34V14.19h-50.34Zm-207.63,0V0H253.24V14.19H76Zm241.66,69.18V21.59h16.32v61.77h-16.32ZM276.47,7.16h-16.07V0h16.07V7.16Z"/>
    </g>
  </g>
</svg>