<?xml version="1.0" encoding="UTF-8"?>
<svg id="Camada_2" data-name="Camada 2" xmlns="http://www.w3.org/2000/svg" viewBox="0 0 392.61 156.9">
  <g id="Camada_1-2" data-name="Camada 1">
    <g>
      <path d="M51.22,155.26l-24.73-37.54-9.29,9.17v28.37H0V71.9H17.2v33.89l31.89-33.9h22.6l-32.89,32.89,33.65,50.47h-21.23Z"/>
      <path d="M112.11,155.26c-.5-1.51-.88-3.64-1-5.52-3.89,4.27-10.42,7.16-18.71,7.16-14.06,0-20.59-6.91-20.59-16.95,0-17.83,11.93-19.84,28.37-22.1,8.16-1.13,10.42-2.76,10.42-7.03,0-4.02-4.02-6.4-10.42-6.4-7.41,0-10.42,3.64-11.17,9.17h-15.19c.25-12.81,7.28-21.72,27.12-21.72s26.37,8.79,26.37,24.36v39.05h-15.19v-.02Zm-1.14-30.26c-1.63,1.63-4.52,2.51-10.55,3.64-9.29,1.76-12.3,4.39-12.3,9.67,0,4.65,2.76,6.91,7.91,6.91,8.41,0,14.69-6.15,14.81-13.43l.13-6.78h0Z"/>
      <path d="M174.01,155.26v-37.41c0-9.54-2.76-12.18-10.55-12.18-8.54,0-12.68,4.77-12.68,14.19v35.41h-16.32v-61.78h15.57v9.04c3.77-6.91,10.04-10.67,19.96-10.67,11.8,0,20.46,7.16,20.46,20.59v42.81h-16.44Z"/>
      <path d="M237.79,155.26v-8.66c-4.27,7.03-10.67,10.29-19.21,10.29-12.3,0-20.97-9.17-20.97-22.72v-40.68h16.32v38.17c0,7.78,3.51,11.55,10.42,11.55,8.29,0,12.68-5.9,12.68-14.06v-35.66h16.2v61.77h-15.44Z"/>
      <path d="M295.42,114.58h15.19v17.58c0,13.06-7.53,24.73-24.98,24.73s-25.24-11.55-25.24-24.86v-55.24h16.07v16.7h34.15v11.55h-34.15v25.36c0,7.78,2.76,12.3,9.42,12.3s9.54-4.39,9.54-12.05v-16.07Z"/>
      <path d="M283.62,86.08v-14.18h50.34v14.19h-50.34Zm-207.63,0v-14.18H253.24v14.19H75.99Zm241.66,69.17v-61.77h16.32v61.77h-16.32Zm-41.18-76.21h-16.07v-7.16h16.07v7.16Z"/>
    </g>
    <g>
      <path d="M297,11.84c.44,3.78-1.3,6.91-4.95,8.03-4.13,1.27-8.15-.59-9.8-5.99-1.64-5.33,.19-9.45,4.69-10.83,3.94-1.21,7.2,.54,8.48,3.62l-3.3,1.01c-1-1.64-2.72-2.28-4.29-1.8-2.73,.84-3.36,3.34-2.31,6.78,1.07,3.49,2.98,5.16,5.54,4.37,1.94-.6,2.79-2.07,2.63-4.18l3.29-1.01Z"/>
      <path d="M310.85,8.06c.63-5.55,3.84-8.55,8.87-7.99,5.03,.57,7.44,4.21,6.8,9.83-.63,5.62-3.75,8.22-8.78,7.65-5.03-.57-7.52-3.97-6.89-9.49Zm12.29,1.46c.44-3.87-.91-6.09-3.77-6.42-2.88-.33-4.72,1.54-5.15,5.41-.44,3.87,1.02,5.78,3.86,6.1,2.46,.28,4.63-1.22,5.07-5.09Z"/>
      <path d="M347.83,28.01l5.73-9.73-8.38,8.17-2.95-1.74,3.08-11.23-5.71,9.68-2.76-1.62,8.36-14.19,4.36,2.57-3.57,11.92,8.7-8.9,4.28,2.52-8.36,14.19-2.78-1.64Z"/>
      <path d="M359.35,38.02l13.22-9.83,4.34,5.83c1.92,2.59,1.26,5.65-1.13,7.42-2.41,1.79-5.37,1.43-7.29-1.16l-2.28-3.07-4.8,3.57-2.06-2.77Zm11.06,.16c1.18,1.59,2.49,1.64,3.64,.79,1.09-.81,1.42-2.08,.24-3.67l-1.95-2.63-3.88,2.88,1.95,2.63Z"/>
      <path d="M374.28,66.94l2.95-1.98-1.75-5.82-3.59-.14-1.05-3.49,17.47,.88,1.15,3.82-14.1,10.31-1.08-3.59Zm11.05-7.6v-.02s-6.89-.13-6.89-.13l1.21,4.02,5.68-3.86Z"/>
      <path d="M375.13,92.28l11.76-5.81-11-1.19,.34-3.18,16.38,1.78-.39,3.62-11.24,5.37,10.53,1.14-.35,3.21-16.38-1.78,.34-3.16Z"/>
      <path d="M368.74,111.57l5.47,2.97,11.72-.12-1.92,3.53-7.54-.14,4.36,6.01-1.89,3.49-6.42-9.75-5.43-2.95,1.64-3.03Z"/>
    </g>
  </g>
</svg>