<?xml version="1.0" encoding="UTF-8"?>
<svg id="Camada_2" data-name="Camada 2" xmlns="http://www.w3.org/2000/svg" viewBox="0 0 394.72 149.27">
  <defs>
    <style>
      .cls-1 {
        fill: #fff;
      }

      .cls-2 {
        fill: #b4db20;
      }
    </style>
  </defs>
  <g id="Camada_1-2" data-name="Camada 1">
    <g>
      <g>
        <path class="cls-1" d="M51.22,147.64l-24.73-37.54-9.29,9.17v28.37H0V64.27H17.2v33.9l31.89-33.9h22.6l-32.89,32.89,33.65,50.47h-21.22Z"/>
        <path class="cls-1" d="M112.12,147.64c-.5-1.51-.88-3.64-1-5.52-3.89,4.27-10.42,7.16-18.71,7.16-14.06,0-20.59-6.91-20.59-16.95,0-17.83,11.93-19.84,28.37-22.1,8.16-1.13,10.42-2.76,10.42-7.03,0-4.02-4.02-6.4-10.42-6.4-7.41,0-10.42,3.64-11.17,9.17h-15.19c.25-12.81,7.28-21.72,27.12-21.72s26.37,8.79,26.37,24.36v39.05h-15.19Zm-1.13-30.26c-1.63,1.63-4.52,2.51-10.55,3.64-9.29,1.76-12.3,4.39-12.3,9.67,0,4.65,2.76,6.91,7.91,6.91,8.41,0,14.69-6.15,14.81-13.43l.13-6.78Z"/>
        <path class="cls-1" d="M174.02,147.64v-37.41c0-9.54-2.76-12.18-10.55-12.18-8.54,0-12.68,4.77-12.68,14.19v35.41h-16.32v-61.77h15.57v9.04c3.77-6.91,10.04-10.67,19.96-10.67,11.8,0,20.46,7.16,20.46,20.59v42.81h-16.45Z"/>
        <path class="cls-1" d="M237.8,147.64v-8.66c-4.27,7.03-10.67,10.29-19.21,10.29-12.3,0-20.97-9.17-20.97-22.72v-40.68h16.32v38.17c0,7.78,3.51,11.55,10.42,11.55,8.29,0,12.68-5.9,12.68-14.06v-35.66h16.2v61.77h-15.44Z"/>
        <path class="cls-1" d="M295.43,106.96h15.19v17.58c0,13.06-7.53,24.73-24.98,24.73s-25.24-11.55-25.24-24.86v-55.24h16.07v16.7h34.15v11.55h-34.15v25.36c0,7.78,2.76,12.3,9.42,12.3s9.54-4.39,9.54-12.05v-16.07Z"/>
        <path class="cls-1" d="M283.63,78.46v-14.19h50.34v14.19h-50.34Zm-207.63,0v-14.19H253.24v14.19H76Zm241.66,69.18v-61.77h16.32v61.77h-16.32Zm-41.18-76.21h-16.07v-7.16h16.07v7.16Z"/>
      </g>
      <g>
        <path class="cls-2" d="M291.4,12c.55,3.16-.75,5.88-3.77,7-3.41,1.27-6.88-.09-8.54-4.55-1.64-4.4-.31-7.95,3.41-9.34,3.25-1.21,6.08,.1,7.31,2.63l-2.72,1.01c-.92-1.33-2.4-1.78-3.7-1.3-2.25,.84-2.66,2.97-1.6,5.81,1.07,2.88,2.77,4.19,4.88,3.4,1.61-.6,2.24-1.88,2.01-3.65l2.72-1.02Z"/>
        <path class="cls-2" d="M302.49,7.71c-.13-4.7,2.19-7.59,6.45-7.71s6.7,2.63,6.83,7.4c.13,4.76-2.16,7.29-6.42,7.41-4.26,.12-6.73-2.42-6.87-7.1Zm10.42-.23c-.09-3.28-1.47-4.98-3.9-4.91-2.44,.07-3.75,1.84-3.66,5.12,.09,3.28,1.53,4.7,3.94,4.63,2.09-.06,3.72-1.57,3.62-4.85Z"/>
        <path class="cls-2" d="M336.35,18.83l2.9-9.06-5.37,8.27-2.75-.88,.44-9.8-2.89,9.02-2.57-.82,4.23-13.22,4.06,1.3-.71,10.46,5.49-8.93,3.98,1.28-4.23,13.21-2.59-.83Z"/>
        <path class="cls-2" d="M355.88,30.33l1.02-2.81-4.09-3.08-2.51,1.7-2.45-1.85,12.31-8.1,2.69,2.02-4.45,14.02-2.52-1.9Zm3.72-10.67h-.02s-4.74,3.32-4.74,3.32l2.82,2.13,1.94-5.45Z"/>
        <path class="cls-2" d="M365.22,39.63l11.35-7.98,3.52,5.01c1.56,2.22,.93,4.78-1.12,6.22-2.07,1.45-4.55,1.08-6.12-1.14l-1.85-2.63-4.12,2.89-1.67-2.38Zm9.31,.38c.96,1.37,2.06,1.44,3.05,.74,.94-.66,1.24-1.72,.28-3.08l-1.59-2.26-3.33,2.34,1.59,2.26Z"/>
        <path class="cls-2" d="M378.1,64.24l2.42-1.77-1.68-4.84h-3.03s-1.01-2.89-1.01-2.89l14.73,.13,1.1,3.18-11.51,9.17-1.03-2.98Zm9.04-6.78v-.02s-5.8,.13-5.8,.13l1.16,3.34,4.64-3.45Z"/>
        <path class="cls-2" d="M380.81,85.78l9.25-6.04-9.32,.11-.03-2.7,13.87-.16,.04,3.07-8.86,5.62,8.92-.1,.03,2.72-13.87,.16-.03-2.67Z"/>
        <path class="cls-2" d="M378.05,103.02l5.01,1.56,9.67-2.02-1.01,3.23-6.26,1.11,4.58,4.25-.99,3.19-6.9-7.01-4.97-1.55,.86-2.77Z"/>
      </g>
    </g>
  </g>
</svg>