<?xml version="1.0" encoding="UTF-8"?>
<svg id="Camada_2" data-name="Camada 2" xmlns="http://www.w3.org/2000/svg" xmlns:xlink="http://www.w3.org/1999/xlink" viewBox="0 0 194.58 194.58">
  <defs>
    <style>
      .cls-1 {
        fill: #fff;
      }

      .cls-2 {
        clip-path: url(#clippath);
      }

      .cls-3 {
        fill: none;
      }

      .cls-4 {
        fill: #a1fe09;
      }
    </style>
    <clipPath id="clippath">
      <rect class="cls-3" width="194.58" height="194.58" rx="27.64" ry="27.64"/>
    </clipPath>
  </defs>
  <g id="Camada_1-2" data-name="Camada 1">
    <g class="cls-2">
      <g>
        <path d="M-118.24-63.51V308.86H271.44V-63.51H-118.24ZM81.77,58.33h22.45l-15.3,15.3c-4.15-3.25-8.45-6.32-12.89-9.2l5.74-6.1Zm78.2,83.35l-15.2-.1c-.5-1.5-.9-3.6-1-5.5-.82,.9-1.75,1.74-2.79,2.5-1.44-3.03-2.96-6.01-4.56-8.94,4.25-2.39,6.98-6.69,7.05-11.41v-.15l.2-6.65v-.15c-1.6,1.6-4.5,2.5-10.6,3.6-1.86,.36-3.47,.75-4.85,1.2-2.21-3.34-4.54-6.6-6.97-9.78,3.49-.82,7.41-1.38,11.62-1.97,8.04-1.08,10.31-2.73,10.39-6.76,.01-.08,.01-.16,.01-.24,0-.12,0-.25-.01-.37-.14-3.87-4.11-6.18-10.39-6.18-7.4,0-10.4,3.6-11.2,9.2h-5.5c-2.58-3.08-5.26-6.07-8.03-8.97,3.09-7.71,10.79-12.58,25.43-12.58,19.18,0,25.97,8.26,26.38,22.96,.01,.47,.02,.95,.02,1.44v38.85Zm0-68.45h-51.68v-14.05h51.68v14.05Z"/>
        <path class="cls-4" d="M158.41,216.14c0,33.89-9.32,65.61-25.55,92.72-31.58,52.79-89.31,88.13-155.3,88.13-99.88,0-180.85-80.97-180.85-180.85,0-64.69,33.97-121.45,85.05-153.41,27.78-17.39,60.61-27.44,95.8-27.44s70.06,10.68,98.38,29.08c.03,0,.06,.03,.09,.06,4.44,2.88,8.74,5.95,12.89,9.2,.03,.03,.06,.05,.08,.07,6.77,5.3,13.15,11.08,19.09,17.27,.02,.02,.03,.03,.05,.04,2.77,2.9,5.45,5.89,8.03,8.97,.05,.05,.09,.1,.13,.15,1.66,1.98,3.28,4,4.85,6.05,.04,.04,.07,.08,.1,.12,2.43,3.18,4.76,6.44,6.97,9.78,.03,.04,.06,.08,.08,.12,2.88,4.31,5.56,8.76,8.05,13.33,.03,.03,.05,.07,.07,.11,1.6,2.93,3.12,5.91,4.56,8.94,.02,.03,.03,.07,.05,.11,11.15,23.47,17.38,49.73,17.38,77.45Z"/>
        <g>
          <rect class="cls-1" x="108.29" y="59.03" width="51.68" height=".15"/>
          <g>
            <path class="cls-1" d="M105.17,141.58h-21.3l-24.7-37.6-9.3,9.2v28.4h-17.2V58.18h17.2v33.9l26.07-27.71,5.83-6.19h22.6l-.15,.15h-22.45l-5.74,6.1c4.44,2.88,8.74,5.95,12.89,9.2l-17.45,17.45,.06,.09,33.64,50.41Z"/>
            <path class="cls-1" d="M133.57,78.28c-14.71,0-22.41,4.91-25.48,12.69-.73,1.84-1.19,3.84-1.42,5.97-.03,.31-.06,.62-.09,.93-.03,.35-.05,.71-.07,1.07-.02,.34-.03,.69-.04,1.04h9.7c-2.58-3.08-5.26-6.07-8.03-8.97,3.09-7.71,10.79-12.58,25.43-12.58,19.18,0,25.97,8.26,26.38,22.96-.36-14.8-7.13-23.11-26.38-23.11Zm2.78,51.25c-2.21,1.23-4.82,1.95-7.68,1.95-5.04,0-7.84-2.15-7.9-6.75v-.1c0-.13,0-.26,.01-.39,.1-4.03,2.06-6.46,7.44-8.16-2.21-3.34-4.54-6.6-6.97-9.78,3.49-.82,7.41-1.38,11.62-1.97,8.04-1.08,10.31-2.73,10.39-6.76-.13,3.92-2.45,5.54-10.39,6.61-4.25,.59-8.2,1.17-11.72,2-9.74,2.29-16.17,6.55-16.65,18.63-.02,.52-.03,1.06-.03,1.62,0,.27,0,.53,.02,.79,.39,9.58,6.92,16.06,20.58,16.06,6.56,0,12-1.81,15.91-4.7-1.44-3.03-2.96-6.01-4.56-8.94,4.25-2.39,6.98-6.69,7.05-11.41v-.15c-.07,4.75-2.83,9.07-7.12,11.45Z"/>
          </g>
        </g>
        <g>
          <rect x="108.29" y="73.23" width="51.68" height=".15"/>
          <g>
            <path d="M105.17,141.73h-21.3l-24.7-37.6-9.3,9.2v28.4h-17.2V58.33h17.2v33.9l26.16-27.8c4.44,2.88,8.74,5.95,12.89,9.2l15.3-15.3h.15l-15.37,15.37-17.47,17.47-.06,.06,33.6,50.35,.1,.15Z"/>
            <path d="M144.77,141.58c-.5-1.5-.9-3.6-1-5.5-.82,.9-1.75,1.74-2.79,2.5-1.44-3.03-2.96-6.01-4.56-8.94-2.22,1.26-4.86,1.99-7.75,1.99-5.1,0-7.9-2.2-7.9-6.9v-.1c0-.13,0-.26,.01-.39,.15-3.96,2.15-6.35,7.52-8.04,1.36-.43,2.94-.82,4.77-1.17,6.1-1.1,9-2,10.6-3.6v-.15c-1.6,1.6-4.5,2.5-10.6,3.6-1.86,.36-3.47,.75-4.85,1.2-2.21-3.34-4.54-6.6-6.97-9.78-9.76,2.28-16.22,6.5-16.75,18.51-.02,.52-.03,1.06-.03,1.62,0,.27,0,.53,.02,.79,.33,9.67,6.85,16.21,20.58,16.21,6.59,0,12.04-1.83,15.96-4.74,1.02-.75,1.94-1.57,2.74-2.46,.1,1.9,.5,4,1,5.5l15.2,.1v-.15l-15.2-.1Zm-23.1-41.45c.8-5.6,3.8-9.2,11.2-9.2,6.2,0,10.15,2.25,10.39,6.03-.14-3.87-4.11-6.18-10.39-6.18-7.4,0-10.4,3.6-11.2,9.2h-5.5c-2.58-3.08-5.26-6.07-8.03-8.97-.74,1.83-1.22,3.81-1.47,5.93-.03,.31-.06,.62-.09,.93-.03,.35-.05,.71-.07,1.07-.02,.34-.03,.69-.03,1.04h-.01v.15h15.2Z"/>
          </g>
        </g>
      </g>
    </g>
  </g>
</svg>