<?xml version="1.0" encoding="UTF-8"?>
<svg id="Camada_2" data-name="Camada 2" xmlns="http://www.w3.org/2000/svg" viewBox="0 0 426.87 188.99">
  <defs>
    <style>
      .cls-1 {
        fill: #fff;
      }

      .cls-2 {
        fill: #b4db20;
        font-family: CoolveticaRg-Regular, Coolvetica;
        font-size: 20.89px;
      }
    </style>
  </defs>
  <g id="Camada_1-2" data-name="Camada 1">
    <g>
      <path class="cls-1" d="M51.22,183.52l-24.73-37.54-9.29,9.17v28.37H0V100.15H17.2v33.9l31.89-33.9h22.6l-32.89,32.89,33.65,50.47h-21.22Z"/>
      <path class="cls-1" d="M112.12,183.52c-.5-1.51-.88-3.64-1-5.52-3.89,4.27-10.42,7.16-18.71,7.16-14.06,0-20.59-6.91-20.59-16.95,0-17.83,11.93-19.84,28.37-22.1,8.16-1.13,10.42-2.76,10.42-7.03,0-4.02-4.02-6.4-10.42-6.4-7.41,0-10.42,3.64-11.17,9.17h-15.19c.25-12.81,7.28-21.72,27.12-21.72s26.37,8.79,26.37,24.36v39.05h-15.19Zm-1.13-30.26c-1.63,1.63-4.52,2.51-10.55,3.64-9.29,1.76-12.3,4.39-12.3,9.67,0,4.65,2.76,6.91,7.91,6.91,8.41,0,14.69-6.15,14.81-13.43l.13-6.78Z"/>
      <path class="cls-1" d="M174.02,183.52v-37.41c0-9.54-2.76-12.18-10.55-12.18-8.54,0-12.68,4.77-12.68,14.19v35.41h-16.32v-61.77h15.57v9.04c3.77-6.91,10.04-10.67,19.96-10.67,11.8,0,20.46,7.16,20.46,20.59v42.81h-16.45Z"/>
      <path class="cls-1" d="M237.8,183.52v-8.66c-4.27,7.03-10.67,10.29-19.21,10.29-12.3,0-20.97-9.17-20.97-22.72v-40.68h16.32v38.17c0,7.78,3.51,11.55,10.42,11.55,8.29,0,12.68-5.9,12.68-14.06v-35.66h16.2v61.77h-15.44Z"/>
      <path class="cls-1" d="M295.43,142.84h15.19v17.58c0,13.06-7.53,24.73-24.98,24.73s-25.24-11.55-25.24-24.86v-55.24h16.07v16.7h34.15v11.55h-34.15v25.36c0,7.78,2.76,12.3,9.42,12.3s9.54-4.39,9.54-12.05v-16.07Z"/>
      <path class="cls-1" d="M283.63,114.34v-14.19h50.34v14.19h-50.34Zm-207.63,0v-14.19H253.24v14.19H76Zm241.66,69.18v-61.77h16.32v61.77h-16.32Zm-41.18-76.21h-16.07v-7.16h16.07v7.16Z"/>
    </g>
    <text class="cls-2" transform="translate(281.14 56.79) rotate(-20.49)"><tspan x="0" y="0">C</tspan></text>
    <text class="cls-2" transform="translate(302.37 50.41) rotate(-1.6)"><tspan x="0" y="0">O</tspan></text>
    <text class="cls-2" transform="translate(325.66 51.29) rotate(17.75)"><tspan x="0" y="0">M</tspan></text>
    <text class="cls-2" transform="translate(347.78 60.1) rotate(37)"><tspan x="0" y="0">A</tspan></text>
    <text class="cls-2" transform="translate(364.95 75.12) rotate(54.93)"><tspan x="0" y="0">P</tspan></text>
    <text class="cls-2" transform="translate(374.78 90.57) rotate(70.9)"><tspan x="0" y="0">A</tspan></text>
    <text class="cls-2" transform="translate(380.71 112.55) rotate(89.34)"><tspan x="0" y="0">N</tspan></text>
    <text class="cls-2" transform="translate(379.5 134.25) rotate(107.3)"><tspan x="0" y="0">Y</tspan></text>
  </g>
</svg>