<?xml version="1.0" encoding="UTF-8"?>
<svg id="Camada_2" data-name="Camada 2" xmlns="http://www.w3.org/2000/svg" viewBox="0 0 418.1 166.17">
  <defs>
    <style>
      .cls-1 {
        fill: #92de25;
      }
    </style>
  </defs>
  <g id="Camada_1-2" data-name="Camada 1">
    <g>
      <path d="M51.2,164.47l-24.7-37.5-9.3,9.2v28.4H0V81.17H17.2v33.9l31.9-33.9h22.6l-32.9,32.9,33.6,50.5-21.2-.1h0Z"/>
      <path d="M112.1,164.47c-.5-1.5-.9-3.6-1-5.5-3.9,4.3-10.4,7.2-18.7,7.2-14.1,0-20.6-6.9-20.6-17,0-17.8,11.9-19.8,28.4-22.1,8.2-1.1,10.4-2.8,10.4-7s-4-6.4-10.4-6.4c-7.4,0-10.4,3.6-11.2,9.2h-15.2c.2-12.8,7.3-21.7,27.1-21.7s26.4,8.8,26.4,24.4v39l-15.2-.1h0Zm-1.1-30.2c-1.6,1.6-4.5,2.5-10.6,3.6-9.3,1.8-12.3,4.4-12.3,9.7,0,4.6,2.8,6.9,7.9,6.9,8.4,0,14.7-6.1,14.8-13.4l.2-6.8h0Z"/>
      <path d="M174,164.47v-37.4c0-9.5-2.8-12.2-10.6-12.2-8.5,0-12.7,4.8-12.7,14.2v35.5h-16.2v-61.8h15.6v9c3.8-6.9,10-10.7,20-10.7,11.8,0,20.5,7.2,20.5,20.6v42.8h-16.6Z"/>
      <path d="M237.8,164.47v-8.7c-4.3,7-10.7,10.3-19.2,10.3-12.3,0-21-9.2-21-22.7v-40.7h16.3v38.2c0,7.8,3.5,11.6,10.4,11.6,8.3,0,12.7-5.9,12.7-14.1v-35.7h16.2v61.8h-15.4Z"/>
      <path d="M295.4,123.87h15.2v17.6c0,13.1-7.5,24.7-25,24.7s-25.2-11.5-25.2-24.9v-55.2h16.1v16.7h34.1v11.5h-34.1v25.4c0,7.8,2.8,12.3,9.4,12.3s9.5-4.4,9.5-12v-16.1Z"/>
      <path d="M283.6,95.37v-14.2h50.3v14.2h-50.3Zm-207.6,0v-14.2H253.2v14.2H76Zm241.7,69.1v-61.8h16.3v61.8h-16.3Zm-41.2-76.2h-16.1v-7.2h16.1v7.2Z"/>
    </g>
    <g>
      <path class="cls-1" d="M322.5,11.77c.4,3.8-1.3,6.9-5,8-4.1,1.3-8.1-.6-9.8-6-1.6-5.3,.2-9.4,4.7-10.8,3.9-1.2,7.2,.5,8.5,3.6l-3.3,1c-1-1.6-2.7-2.3-4.3-1.8-2.7,.8-3.4,3.3-2.3,6.8s3,5.2,5.5,4.4c1.9-.6,2.8-2.1,2.6-4.2l3.4-1Z"/>
      <path class="cls-1" d="M336.3,8.07c.6-5.5,3.8-8.6,8.9-8,5,.6,7.4,4.2,6.8,9.8-.6,5.6-3.7,8.2-8.8,7.6-5-.5-7.5-3.9-6.9-9.4Zm12.3,1.4c.4-3.9-.9-6.1-3.8-6.4-2.9-.3-4.7,1.5-5.2,5.4-.4,3.9,1,5.8,3.9,6.1,2.5,.3,4.7-1.2,5.1-5.1Z"/>
      <path class="cls-1" d="M373.3,27.97l5.7-9.7-8.4,8.2-3-1.7,3.1-11.2-5.7,9.7-2.8-1.6,8.4-14.2,4.4,2.6-3.6,11.9,8.7-8.9,4.3,2.5-8.4,14.2-2.7-1.8Z"/>
      <path class="cls-1" d="M384.8,37.97l13.2-9.8,4.3,5.8c1.9,2.6,1.3,5.6-1.1,7.4-2.4,1.8-5.4,1.4-7.3-1.2l-2.3-3.1-4.8,3.6-2-2.7Zm11.1,.2c1.2,1.6,2.5,1.6,3.6,.8s1.4-2.1,.2-3.7l-2-2.6-3.9,2.9,2.1,2.6Z"/>
      <path class="cls-1" d="M399.8,66.87l3-2-1.8-5.8-3.6-.1-1.1-3.5,17.5,.9,1.2,3.8-14.1,10.3-1.1-3.6Zm11-7.6h0l-6.9-.2,1.2,4,5.7-3.8Z"/>
      <path class="cls-1" d="M400.6,92.27l11.8-5.8-11-1.2,.3-3.2,16.4,1.8-.4,3.6-11.2,5.4,10.5,1.1-.3,3.2-16.4-1.8,.3-3.1Z"/>
      <path class="cls-1" d="M394.2,111.57l5.5,3,11.7-.1-1.9,3.5-7.5-.1,4.4,6-1.9,3.5-6.4-9.8-5.4-2.9,1.5-3.1Z"/>
    </g>
  </g>
</svg>